<svg id="Layer_1" data-name="Layer 1" xmlns="http://www.w3.org/2000/svg" viewBox="0 0 21.01 15.81"><defs><style>.cls-1{fill:#80b545;}.cls-2{fill:#f5b225;}.cls-3{fill:#d6345d;}.cls-4{fill:#3f9dd2;}.cls-5{fill:#0c1b2a;}</style></defs><title>pm_icon</title><path class="cls-1" d="M510.38,400.42a1.42,1.42,0,0,0-1.31,1.42v3.54a1.79,1.79,0,0,1-1.95,1.95h-1.6v-1.47h0.79c0.76,0,.84-0.49.84-1.11v-3.45a2.19,2.19,0,0,1,1.45-1.87h1.79v1Z" transform="translate(-489.37 -391.51)"/><path class="cls-2" d="M507.15,397.54v-3.45c0-.63-0.09-1.12-0.84-1.12h-0.79v-1.47h1.6a1.79,1.79,0,0,1,1.94,1.95V397a1.42,1.42,0,0,0,1.31,1.42v1h-1.79A2.2,2.2,0,0,1,507.15,397.54Z" transform="translate(-489.37 -391.51)"/><path class="cls-3" d="M492.6,397.54v-3.45c0-.62.09-1.11,0.84-1.11h0.79v-1.47h-1.6a1.79,1.79,0,0,0-1.94,1.95V397a1.42,1.42,0,0,1-1.32,1.42v1h1.79A2.19,2.19,0,0,0,492.6,397.54Z" transform="translate(-489.37 -391.51)"/><path class="cls-4" d="M489.37,400.42a1.42,1.42,0,0,1,1.32,1.42v3.54a1.79,1.79,0,0,0,1.94,1.95h1.6v-1.47h-0.79c-0.76,0-.84-0.49-0.84-1.12v-3.45a2.2,2.2,0,0,0-1.45-1.87h-1.79v1Z" transform="translate(-489.37 -391.51)"/><path class="cls-5" d="M503.19,394.21a5,5,0,0,0-1.89-.25h-3a5,5,0,0,0-1.88.25,2.57,2.57,0,0,0-1.66,2.58v4.15c0,2.65,3.91,3.86,5.09,3.86s5.18-1.2,5.18-3.86v-4.15A2.71,2.71,0,0,0,503.19,394.21ZM503.11,401c0,0.94-2.48,1.9-3.28,1.9s-3.18-1-3.18-1.9v-5c0-.06,0-0.1,0-0.15a9.31,9.31,0,0,0,3.27.43,10.21,10.21,0,0,0,3.17-.38s0,0.07,0,.11v5Z" transform="translate(-489.37 -391.51)"/></svg>